<?xml version="1.0" standalone="no"?>
<!DOCTYPE svg PUBLIC "-//W3C//DTD SVG 20010904//EN"
 "http://www.w3.org/TR/2001/REC-SVG-20010904/DTD/svg10.dtd">
<svg version="1.0" xmlns="http://www.w3.org/2000/svg"
 width="512.000000pt" height="512.000000pt" viewBox="0 0 512.000000 512.000000"
 preserveAspectRatio="xMidYMid meet">

<g transform="translate(0.000000,512.000000) scale(0.100000,-0.100000)"
fill="#0000ff" stroke="none">
<path d="M2345 5113 c-318 -28 -695 -136 -958 -276 l-58 -31 498 -498 c274
-275 517 -513 541 -529 135 -95 322 -31 368 126 35 124 9 172 -226 410 -207
210 -215 223 -208 331 5 74 37 130 104 177 49 35 131 46 201 27 45 -12 108
-73 1061 -1024 557 -556 1037 -1040 1066 -1076 142 -174 258 -394 322 -615
l18 -60 12 65 c37 198 42 563 9 777 -83 559 -339 1068 -732 1458 -487 486
-1137 751 -1822 743 -86 -1 -174 -3 -196 -5z m1852 -959 c121 -96 105 -266
-31 -336 -30 -15 -53 -19 -97 -16 -210 15 -252 295 -58 378 13 5 52 9 86 7 52
-2 69 -8 100 -33z"/>
<path d="M752 4365 l-165 -166 80 -82 c44 -45 90 -101 102 -124 27 -54 28
-151 2 -209 -23 -49 -88 -107 -140 -122 -96 -29 -177 -5 -265 77 l-53 51 -60
-128 c-272 -570 -324 -1162 -159 -1785 91 -343 251 -649 492 -942 374 -456
897 -770 1469 -884 313 -62 628 -68 929 -17 l71 12 -90 27 c-192 59 -349 137
-528 264 -116 82 -1363 1323 -1403 1396 -22 40 -28 65 -28 112 1 66 16 105 71
172 18 23 40 58 48 77 19 46 19 137 0 183 -10 23 -100 123 -244 267 -197 199
-230 238 -244 280 -21 61 -21 101 -2 157 35 98 121 159 224 159 82 -1 131 -28
235 -130 102 -100 140 -120 224 -120 118 0 210 76 235 195 9 46 8 63 -7 112
-17 53 -33 72 -206 248 -176 179 -189 195 -205 249 -26 88 -8 160 58 235 44
51 67 108 67 171 0 89 -26 129 -183 287 -77 79 -145 143 -150 143 -5 0 -84
-74 -175 -165z m-139 -1969 c62 -25 117 -111 117 -182 0 -67 -54 -148 -118
-176 -120 -54 -257 22 -278 154 -13 75 37 166 108 201 40 20 127 22 171 3z"/>
</g>
</svg>
